<svg width="24" height="24" viewBox="0 0 24 24" fill="none" xmlns="http://www.w3.org/2000/svg">
  <path d="M18.41,12l1.3-1.29a1,1,0,0,0-1.42-1.42L17,10.59l-1.29-1.3a1,1,0,0,0-1.42,1.42L15.59,12l-1.3,1.29a1,1,0,0,0,0,1.42,1,1,0,0,0,1.42,0L17,13.41l1.29,1.3a1,1,0,0,0,1.42,0,1,1,0,0,0,0-1.42Z" fill="#EEE5B5"/>
  <path d="M13.23,15.77a2.52,2.52,0,0,1,0-3.54l.23-.23-.23-.23a2.49,2.49,0,0,1,2.77-4V5a1,1,0,0,0-.53-.88,1,1,0,0,0-1,0L8.7,8H6a2,2,0,0,0-2,2v4a2,2,0,0,0,2,2H8.7l5.75,3.83A1,1,0,0,0,16,19V16.27A2.58,2.58,0,0,1,13.23,15.77Z" fill="#EEE5B5"/>
</svg>
